<?xml version="1.0" encoding="UTF-8" standalone="no"?>
<!-- Created with Inkscape (http://www.inkscape.org/) -->

<svg
   xmlns:dc="http://purl.org/dc/elements/1.1/"
   xmlns:cc="http://creativecommons.org/ns#"
   xmlns:rdf="http://www.w3.org/1999/02/22-rdf-syntax-ns#"
   xmlns:svg="http://www.w3.org/2000/svg"
   xmlns="http://www.w3.org/2000/svg"
   xmlns:sodipodi="http://sodipodi.sourceforge.net/DTD/sodipodi-0.dtd"
   xmlns:inkscape="http://www.inkscape.org/namespaces/inkscape"
   id="svg13683"
   version="1.1"
   inkscape:version="0.48.2 r9819"
   width="232.5"
   height="156.25"
   xml:space="preserve"
   sodipodi:docname="Cow.svg"><metadata
     id="metadata13689"><rdf:RDF><cc:Work
         rdf:about=""><dc:format>image/svg+xml</dc:format><dc:type
           rdf:resource="http://purl.org/dc/dcmitype/StillImage" /><dc:title /></cc:Work></rdf:RDF></metadata><defs
     id="defs13687" /><sodipodi:namedview
     pagecolor="#ffffff"
     bordercolor="#666666"
     borderopacity="1"
     objecttolerance="10"
     gridtolerance="10"
     guidetolerance="10"
     inkscape:pageopacity="0"
     inkscape:pageshadow="2"
     inkscape:window-width="1440"
     inkscape:window-height="788"
     id="namedview13685"
     showgrid="false"
     inkscape:zoom="1.4951057"
     inkscape:cx="-12.670599"
     inkscape:cy="52.127193"
     inkscape:window-x="0"
     inkscape:window-y="0"
     inkscape:window-maximized="1"
     inkscape:current-layer="g13691" /><g
     id="g13691"
     inkscape:groupmode="layer"
     inkscape:label="Cow_25"
     transform="matrix(1.25,0,0,-1.25,0,156.25)"><g
       id="g3211"
       inkscape:export-filename="/Users/Elodie/Documents/Cinéma/Animation/vache-broute.png"
       inkscape:export-xdpi="800.70624"
       inkscape:export-ydpi="800.70624"
       transform="translate(1.6052377,-53.507922)"><path
         d="m -5.4087175,74.435112 c 9.9896,-1.22744 14.2176,-10.7408 14.24,-21.2392 h 2.6817605 c 1.25296,4.7132 4.15344,9.9256 12.2552,10.3512 -6.07424,0.81784 -9.2816,-0.67665 -13.1408,-7.348 -3.2576005,15.26 -9.88240049,18.0536 -16.0368005,18.236 z"
         inkscape:connector-curvature="0"
         style="fill:#44aa00"
         sodipodi:nodetypes="cccccc"
         id="path4098-2" /></g><path
       style="fill:#f2f2f2;fill-opacity:1;fill-rule:nonzero"
       d=""
       id="path3091"
       inkscape:connector-curvature="0"
       transform="matrix(0.8,0,0,-0.8,0,125)" /><path
       style="fill:#ffffff;fill-opacity:1;fill-rule:nonzero"
       d=""
       id="path3097"
       inkscape:connector-curvature="0"
       transform="matrix(0.8,0,0,-0.8,0,125)" /><path
       id="rect4078"
       sodipodi:nodetypes="cccccccc"
       style="fill:#008000"
       inkscape:connector-curvature="0"
       d="m -2.6234883,12.568446 c 3.48103999,0.992 10.3064,-1.2408 11.7736,-7.1321597 0.62338,11.1983997 5.1232003,14.5375997 9.1744003,17.0655997 -5.45488,-4.84656 -8.252,-8.8384 -7.50552,-18.7063997 2.50416,5.5436 7.52272,7.5127197 12.2224,4.79008 -6.96784,2.1025597 -10.9984,-4.64272 -11.8376,-8.94319997 H 9.2125917 c -1.11072,3.89223997 -0.8548,11.27759967 -11.8352,12.92639967 z" /><g
       id="g3033"
       transform="matrix(0.99880015,0.04897203,-0.04897203,0.99880015,8.4917666,-5.1093778)"
       inkscape:export-filename="/Users/Elodie/Documents/Cinéma/Animation/vache-broute.png"
       inkscape:export-xdpi="800.70624"
       inkscape:export-ydpi="800.70624"><path
         d="m 28.14,115.98 c 0,0 1.28256,0.58512 1.92,1.44 0.83616,0.9132 1.33584,2.24616 1.92,2.4 0.74904,0.18 1.91616,1.18032 2.4,1.68 0.51552,0.49968 1.84872,0.66648 2.4,0.72 0.44904,0.28032 2.11584,0.44616 2.64,0.48 0.47616,-0.0338 0.96,-0.72 0.96,-0.72 l 1.44,-0.24 0,-0.72 -1.2,-8.64 -12.48,3.6"
         style="fill:#f5f2e6;fill-opacity:1;fill-rule:nonzero;stroke:none"
         id="path13695"
         inkscape:connector-curvature="0" /><path
         d="m 28.14,115.98 c 0,0 1.28256,0.58512 1.92,1.44 0.83616,0.9132 1.33584,2.24616 1.92,2.4 0.74904,0.18 1.91616,1.18032 2.4,1.68 0.51552,0.49968 1.84872,0.66648 2.4,0.72 0.44904,0.28032 2.11584,0.44616 2.64,0.48 0.47616,-0.0338 0.96,-0.72 0.96,-0.72 l 1.44,-0.24 0,-0.72 -1.2,-8.64 -12.48,3.6 z"
         style="fill:none;stroke:#000000;stroke-width:0.49999917;stroke-linecap:butt;stroke-linejoin:miter;stroke-miterlimit:4;stroke-opacity:1;stroke-dasharray:none"
         id="path13697"
         inkscape:connector-curvature="0" /><path
         d="m 10.38,83.82 c 0,0 0.682512,-0.82032 1.68,-0.48 1.002192,0.16032 2.252808,0.16032 3.12,0.96 0.632808,0.70032 1.382808,2.20032 2.64,2.16 1.242192,0.04032 2.88,2.4 2.88,2.4 l -2.4,1.44 -7.92,-6.48"
         style="fill:#dbd6d1;fill-opacity:1;fill-rule:nonzero;stroke:none"
         id="path13699"
         inkscape:connector-curvature="0" /><path
         d="m 10.38,83.82 c 0,0 0.682512,-0.82032 1.68,-0.48 1.002192,0.16032 2.252808,0.16032 3.12,0.96 0.632808,0.70032 1.382808,2.20032 2.64,2.16 1.242192,0.04032 2.88,2.4 2.88,2.4 l -2.4,1.44 -7.92,-6.48 z"
         style="fill:none;stroke:#000000;stroke-width:0.49999917;stroke-linecap:butt;stroke-linejoin:miter;stroke-miterlimit:4;stroke-opacity:1;stroke-dasharray:none"
         id="path13701"
         inkscape:connector-curvature="0" /><path
         d="m 144.54,8.7 c 0.58584,1.867512 0.72,4.56 0.72,4.56 0,0 2.80224,1.99032 2.88,2.64 -0.0778,0.85032 -1.07712,2.85 -0.48,3.6 0.40224,0.75 6.47616,13.93776 6.48,15.6 -0.57744,7.39968 -0.48,18 -0.48,18 l -17.04,-0.24 c 0,0 9.19224,-5.11032 8.64,-21.84 -0.10128,-5.17128 -2.19744,-10.77 -3.36,-12.48 0,0 -1.33776,-4.78968 -2.88,-5.76 0,0 -0.91128,-1.514064 -1.92,-3.12 l 7.44,-0.96"
         style="fill:#ececec;fill-opacity:1;fill-rule:nonzero;stroke:none"
         id="path13703"
         inkscape:connector-curvature="0" /><path
         d="m 144.54,8.7 c 0.58584,1.867512 0.72,4.56 0.72,4.56 0,0 2.80224,1.99032 2.88,2.64 -0.0778,0.85032 -1.07712,2.85 -0.48,3.6 0.40224,0.75 6.47616,13.93776 6.48,15.6 -0.57744,7.39968 -0.48,18 -0.48,18 l -17.04,-0.24 c 0,0 9.19224,-5.11032 8.64,-21.84 -0.10128,-5.17128 -2.19744,-10.77 -3.36,-12.48 0,0 -1.33776,-4.78968 -2.88,-5.76 0,0 -0.91128,-1.514064 -1.92,-3.12 l 7.44,-0.96 z"
         style="fill:none;stroke:#000000;stroke-width:0.49999917;stroke-linecap:butt;stroke-linejoin:miter;stroke-miterlimit:4;stroke-opacity:1;stroke-dasharray:none"
         id="path13705"
         inkscape:connector-curvature="0" /><path
         d="M 71.34,39.66 73.5,29.34 c 0,0 -1.33224,-1.1952 2.4,-4.8 1.16256,-1.29 3.66288,-6.04032 3.12,-8.88 -0.55776,-3.21 -2.95416,-7.379064 -2.16,-7.68 1.83936,-0.69 8.29968,-0.689064 8.64,0.48 0.81288,2.29032 -1.67904,2.85 -1.2,3.84 0.50448,0.88968 1.79712,0.20532 1.44,1.92 -0.21192,1.77468 -1.99416,1.808448 -2.4,4.08 -0.46128,2.172192 -0.54192,6.40968 -0.48,7.2 -0.03288,0.79032 0.07584,3.30744 -0.24,4.56 -0.43128,1.13256 -2.16,4.08 -2.16,4.08 L 79.02,52.38 66.78,49.5 71.34,39.66"
         style="fill:#ececec;fill-opacity:1;fill-rule:nonzero;stroke:none"
         id="path13707"
         inkscape:connector-curvature="0" /><path
         d="M 71.34,39.66 73.5,29.34 c 0,0 -1.33224,-1.1952 2.4,-4.8 1.16256,-1.29 3.66288,-6.04032 3.12,-8.88 -0.55776,-3.21 -2.95416,-7.379064 -2.16,-7.68 1.83936,-0.69 8.29968,-0.689064 8.64,0.48 0.81288,2.29032 -1.67904,2.85 -1.2,3.84 0.50448,0.88968 1.79712,0.20532 1.44,1.92 -0.21192,1.77468 -1.99416,1.808448 -2.4,4.08 -0.46128,2.172192 -0.54192,6.40968 -0.48,7.2 -0.03288,0.79032 0.07584,3.30744 -0.24,4.56 -0.43128,1.13256 -2.16,4.08 -2.16,4.08 L 79.02,52.38 66.78,49.5 71.34,39.66 z"
         style="fill:none;stroke:#000000;stroke-width:0.49999917;stroke-linecap:butt;stroke-linejoin:miter;stroke-miterlimit:4;stroke-opacity:1;stroke-dasharray:none"
         id="path13709"
         inkscape:connector-curvature="0" /><path
         d="m 46.86,61.98 c -0.12936,0.76776 -0.24744,1.37256 -0.24,1.68 -0.30744,2.08968 -5.80776,10.84032 -6.96,13.92 -1.34712,2.92032 -1.09776,3.67032 -2.64,4.56 -3.70776,2.61 -7.2,3.36 -7.2,3.36 -0.75744,0.75 -1.75776,-0.25032 -2.64,-0.72 -1.11744,-0.52968 -1.86744,0.97032 -2.88,1.2 -0.987192,0.27 -1.92,-0.72 -1.92,-0.72 L 20.22,85.5 C 19.187808,85.75032 17.062512,88.00032 15.9,86.94 14.562192,85.99968 11.062512,83.74968 10.38,83.82 9.562512,83.74968 7.5,84.3 7.5,84.3 5.895936,85.16616 6.562512,86.50032 5.58,86.7 4.562808,87 4.312512,87.25032 3.42,88.14 c -1.1071872,1.11 0.142512,3.85968 0.72,4.56 0.162192,0.40968 1.202808,1.45032 3.84,4.08 1.707192,1.5948 1.792512,2.71776 2.88,3.6 1.533744,1.64448 1.452192,1.95384 2.4,2.88 0.885936,0.73968 -0.197808,0.73968 0.96,2.64 1.160616,1.80936 0.425616,2.18352 1.2,3.84 0,0 2.892192,3.51 4.08,4.32 0,0 0.687192,0.94032 0.24,1.2 -0.302808,0.49032 1.44,1.44 1.44,1.44 l 0.24,2.16 1.44,0.72 0.96,-0.24 2.4,0.48 -0.24,-0.72 1.2,0 1.44,0.24 0,-0.96 c 4.06776,0.37032 6.04128,-0.57936 9.36,-2.4 4.33224,-2.23032 6.72,-1.44 6.72,-1.44 0,0 7.1748,-2.83416 14.64,-3.6 1.47936,-0.16416 2.9952,-0.23712 4.56,-0.24 11.53776,0.4248 24.48,-2.4 24.48,-2.4 0,0 4.26096,-1.06872 7.92,-1.68 1.34352,-0.20616 2.6532,-0.37032 3.6,-0.48 2.91288,0.10968 24.34512,-1.78776 28.56,-1.2 5.10288,0.81 8.60256,1.56 22.08,2.64 13.52256,0.91968 20.09256,-0.3348 25.68,-8.16 2.52552,-3.23712 1.33872,-25.14096 -6,-37.44 l -123.36,0"
         style="fill:#f9f9f9;fill-opacity:1;fill-rule:nonzero;stroke:none"
         id="path13711"
         inkscape:connector-curvature="0" /><path
         d="m 170.22,61.98 c -0.93096,-1.5816 -1.98936,-3.01872 -3.12,-4.32 -1.3932,-1.3152 -5.12808,-0.26808 -5.52,-9.36 -0.24288,-2.72064 -1.7352,-4.34448 -0.72,-8.4 0.7248,-3.05712 2.6484,-3.46872 1.68,-5.28 -0.92352,-2.05128 -1.5816,-6.92256 -1.68,-8.16 0.0158,-1.31064 -0.27936,-5.004384 -0.72,-8.64 -0.73128,-4.223448 0.76776,-6.369384 0.48,-7.68 -0.1632,-2.235936 -2.64384,2.741256 -1.68,-2.88 0.0797,-0.945 0.21552,-1.551552 0.24,-2.16 l -7.68,2.4 c 0.4116,0.620616 2.7348,3.930936 3.12,4.8 1.44288,3.70032 1.11552,16.8348 0,20.4 -1.49712,4.4868 -8.82384,8.09904 -8.64,16.56 0,0 -7.04256,4.1148 -10.56,3.36 -3.35712,-0.61968 -12.20904,-4.16904 -13.2,-5.04 -0.3048,-9.6e-4 -0.61416,-0.04776 -0.96,0 C 114.56256,46.75032 115.06224,45 110.22,45.9 105.56256,46.99968 92.06256,48 88.86,47.82 85.56288,47.50032 75.08352,44.98416 73.5,43.02 67.81224,35.50032 68.81256,33 69.18,31.26 69.47616,28.35288 69.01128,25.79064 68.7,24.06 68.56416,21.764064 66.33192,19.758744 66.3,17.82 66.32616,15.728448 64.8816,11.351256 65.34,10.86 67.31256,9 66.72,8.471256 65.58,7.98 64.29936,7.668744 65.34,6.54 65.34,6.54 64.90872,5.694384 65.82,4.14 65.82,4.14 l -7.92,1.44 -1.68,1.2 c 0.13512,0.582192 0.2652,1.164384 0.48,1.68 0.4716,1.853448 2.64,3.84 2.64,3.84 0,0 1.34904,6.896256 1.68,7.92 0.41616,1.083744 -0.71064,3.264384 -0.72,5.28 0.01512,2.01552 0.01224,1.5 -0.24,5.52 -0.24744,3.97968 2.00256,5.73 -0.72,13.44 -0.6132,1.68936 -6.3816,5.89416 -6.48,6 -2.71488,2.79384 -4.5048,6.89712 -5.52,9.84 -0.13416,0.65712 -0.2916,1.20936 -0.48,1.68 l 123.36,0"
         style="fill:#f9f9f9;fill-opacity:1;fill-rule:nonzero;stroke:none"
         id="path13713"
         inkscape:connector-curvature="0" /><path
         d="m 122.22,47.58 c -0.3048,-9.6e-4 -0.61416,-0.04776 -0.96,0 C 114.56256,46.75032 115.06224,45 110.22,45.9 105.56256,46.99968 92.06256,48 88.86,47.82 85.56288,47.50032 75.08352,44.98416 73.5,43.02 67.81224,35.50032 68.81256,33 69.18,31.26 69.47616,28.35288 69.01128,25.79064 68.7,24.06 68.56416,21.764064 66.33192,19.758744 66.3,17.82 66.32616,15.728448 64.8816,11.351256 65.34,10.86 67.31256,9 66.72,8.471256 65.58,7.98 64.29936,7.668744 65.34,6.54 65.34,6.54 64.90872,5.694384 65.82,4.14 65.82,4.14 l -7.92,1.44 -1.68,1.2 c 0.13512,0.582192 0.2652,1.164384 0.48,1.68 0.4716,1.853448 2.64,3.84 2.64,3.84 0,0 1.34904,6.896256 1.68,7.92 0.41616,1.083744 -0.71064,3.264384 -0.72,5.28 0.01512,2.01552 0.01224,1.5 -0.24,5.52 -0.24744,3.97968 2.00256,5.73 -0.72,13.44 -0.6132,1.68936 -6.3816,5.89416 -6.48,6 -2.71488,2.79384 -4.5048,6.89712 -5.52,9.84 -0.42288,1.56384 -0.69552,2.79192 -0.72,3.36 -0.30744,2.08968 -5.80776,10.84032 -6.96,13.92 -1.34712,2.92032 -1.09776,3.67032 -2.64,4.56 -3.70776,2.61 -7.2,3.36 -7.2,3.36 -0.75744,0.75 -1.75776,-0.25032 -2.64,-0.72 -1.11744,-0.52968 -1.86744,0.97032 -2.88,1.2 -0.987192,0.27 -1.92,-0.72 -1.92,-0.72 L 20.22,85.5 C 19.187808,85.75032 17.062512,88.00032 15.9,86.94 14.562192,85.99968 11.062512,83.74968 10.38,83.82 9.562512,83.74968 7.5,84.3 7.5,84.3 5.895936,85.16616 6.562512,86.50032 5.58,86.7 4.562808,87 4.312512,87.25032 3.42,88.14 c -1.1071872,1.11 0.142512,3.85968 0.72,4.56 0.162192,0.40968 1.202808,1.45032 3.84,4.08 1.707192,1.5948 1.792512,2.71776 2.88,3.6 1.533744,1.64448 1.452192,1.95384 2.4,2.88 0.885936,0.73968 -0.197808,0.73968 0.96,2.64 1.160616,1.80936 0.425616,2.18352 1.2,3.84 0,0 2.892192,3.51 4.08,4.32 0,0 0.687192,0.94032 0.24,1.2 -0.302808,0.49032 1.44,1.44 1.44,1.44 l 0.24,2.16 1.44,0.72 0.96,-0.24 2.4,0.48 -0.24,-0.72 1.2,0 1.44,0.24 0,-0.96 c 4.06776,0.37032 6.04128,-0.57936 9.36,-2.4 4.33224,-2.23032 6.72,-1.44 6.72,-1.44 0,0 7.1748,-2.83416 14.64,-3.6 1.47936,-0.16416 2.9952,-0.23712 4.56,-0.24 11.53776,0.4248 24.48,-2.4 24.48,-2.4 0,0 4.26096,-1.06872 7.92,-1.68 1.34352,-0.20616 2.6532,-0.37032 3.6,-0.48 2.91288,0.10968 24.34512,-1.78776 28.56,-1.2 5.10288,0.81 8.60256,1.56 22.08,2.64 13.52256,0.91968 20.09256,-0.3348 25.68,-8.16 2.84256,-3.67032 0.96744,-31.17 -9.12,-41.76 -1.3932,-1.3152 -5.12808,-0.26808 -5.52,-9.36 -0.24288,-2.72064 -1.7352,-4.34448 -0.72,-8.4 0.7248,-3.05712 2.6484,-3.46872 1.68,-5.28 -0.92352,-2.05128 -1.5816,-6.92256 -1.68,-8.16 0.0158,-1.31064 -0.27936,-5.004384 -0.72,-8.64 -0.73128,-4.223448 0.76776,-6.369384 0.48,-7.68 -0.1632,-2.235936 -2.64384,2.741256 -1.68,-2.88 0.0797,-0.945 0.21552,-1.551552 0.24,-2.16 l -7.68,2.4 c 0.4116,0.620616 2.7348,3.930936 3.12,4.8 1.44288,3.70032 1.11552,16.8348 0,20.4 -1.49712,4.4868 -8.82384,8.09904 -8.64,16.56 0,0 -7.04256,4.1148 -10.56,3.36 -3.35712,-0.61968 -12.20904,-4.16904 -13.2,-5.04 z"
         style="fill:none;stroke:#000000;stroke-width:0.49999917;stroke-linecap:butt;stroke-linejoin:miter;stroke-miterlimit:4;stroke-opacity:1;stroke-dasharray:none"
         id="path13715"
         inkscape:connector-curvature="0" /><path
         d="m 177.42,53.34 c 0.0797,0.84744 -0.16968,4.84776 -0.48,6.48 -0.19032,1.86744 0.31032,3.36744 0.48,5.28 0.33,2.08776 0.64224,9.40032 0.96,10.32 0.18288,1.08 0.18288,17.58 0,20.16 -0.31776,2.41968 -2.88,4.08 -2.88,4.08 0,0 0.81288,-14.16 0.48,-18.48 -0.16776,-4.18032 0.52032,-9.49224 -0.48,-12.96 -1.00032,-3.53256 -0.75,-4.28256 -0.48,-8.64 0.22968,-4.14288 0.73032,-7.89288 0.72,-8.64 0,0 0.0103,-0.75288 -0.48,-3.36 -0.51,-2.39256 -1.26,-0.26712 0,-4.32 1.24032,-4.19712 1.1148,-5.19744 0.48,-7.68 -0.61488,-2.26776 -0.72,-2.4 -0.72,-2.4 0,0 2.35512,4.13256 2.4,7.2 0,0 0.0797,1.80744 -0.24,2.16 -0.18,0.39744 1.69512,-2.10288 1.44,-4.8 0,0 -0.7452,-5.17776 0.24,-6.48 0.76512,-1.44744 1.44,-2.4 1.44,-2.4 0,0 -0.9252,2.45256 -0.72,3.84 0.2952,1.36224 0.96,3.36 0.96,3.36 0,0 0.21,-1.87224 0,-2.64 -0.28968,-0.98256 -0.24,-2.16 -0.24,-2.16 0,0 0.70032,-0.32256 0.96,1.44 0.49032,1.73712 0.96,2.64 0.96,2.64 l 0.24,-1.2 c 0,0 1.29,1.17288 1.2,2.16 -0.16032,1.01256 0.46512,4.26288 -1.2,7.44 -1.8348,3.32256 -2.16,3.6 -2.16,3.6 0,0 2.20032,-1.65288 2.4,-2.16 0.3,-0.74256 -0.0749,1.50744 -0.72,1.92 -0.6048,0.58776 -1.23,0.96288 -2.4,2.16 -1.33032,1.30224 -2.08032,2.55288 -2.16,4.08"
         style="fill:#000000;fill-opacity:1;fill-rule:nonzero;stroke:none"
         id="path13717"
         inkscape:connector-curvature="0" /><path
         d="m 27.66,113.34 c 1.77744,0.0348 1.40256,-0.09 1.68,0 0.47256,0.16032 2.59776,0.7848 3.36,1.2 0.73776,0.58512 0.73776,3.58512 4.32,6.48 0,0 0.41712,0.3552 1.44,0.96 1.22712,0.64512 0.96,0.24 0.96,0.24 0,0 -0.23256,-0.22032 0.96,0.24 1.30776,0.54 2.16,0.48 2.16,0.48 0,0 -0.47712,-0.69 0,-0.48 0.27288,0.0403 -0.35256,0.28968 0.96,0.24 1.43712,0.0497 2.16,-0.24 2.16,-0.24 0,0 -0.09744,-0.3348 0.48,-0.48 0.67224,-0.10488 1.29744,-0.3552 1.2,-0.72 0.09744,-0.3852 -0.72,-0.72 -0.72,-0.72 l -0.24,-0.24 c 0,0 -0.31776,-0.3 -0.24,-0.72 0.17256,-0.33 0,-1.2 0,-1.2 l 0.48,-0.72 -0.24,-1.2 -0.72,-0.24 c 0,0 0.02712,-0.72 0,-1.2 -0.22224,-0.27 -2.59776,-1.77 -2.64,-2.16 -0.20712,-0.61032 -1.2,-0.48 -1.2,-0.48 l -0.72,-0.96 -1.2,0.48 -2.88,-1.44 -0.48,0.24 -0.72,0 -1.44,-0.24 -0.48,0.48 c 0,0 -0.71256,0.55968 -1.44,0.96 -0.52224,0.34968 0.60288,-0.7752 0.72,-1.44 0.13224,-0.58488 -0.48,0 -0.48,0 l -0.96,0.72 c 0,0 0.57288,-1.18032 0.48,-1.44 -0.15744,-0.49032 -0.72,-0.24 -0.72,-0.24 0,0 -1.06224,1.6248 -1.44,1.68 -0.37224,0.19512 0.12744,-1.18032 0.24,-1.44 -0.11256,-0.49032 -0.96,-0.48 -0.96,-0.48"
         style="fill:#f5f2e6;fill-opacity:1;fill-rule:nonzero;stroke:none"
         id="path13719"
         inkscape:connector-curvature="0" /><path
         d="m 27.66,113.34 c 1.77744,0.0348 1.40256,-0.09 1.68,0 0.47256,0.16032 2.59776,0.7848 3.36,1.2 0.73776,0.58512 0.73776,3.58512 4.32,6.48 0,0 0.41712,0.3552 1.44,0.96 1.22712,0.64512 0.96,0.24 0.96,0.24 0,0 -0.23256,-0.22032 0.96,0.24 1.30776,0.54 2.16,0.48 2.16,0.48 0,0 -0.47712,-0.69 0,-0.48 0.27288,0.0403 -0.35256,0.28968 0.96,0.24 1.43712,0.0497 2.16,-0.24 2.16,-0.24 0,0 -0.09744,-0.3348 0.48,-0.48 0.67224,-0.10488 1.29744,-0.3552 1.2,-0.72 0.09744,-0.3852 -0.72,-0.72 -0.72,-0.72 l -0.24,-0.24 c 0,0 -0.31776,-0.3 -0.24,-0.72 0.17256,-0.33 0,-1.2 0,-1.2 l 0.48,-0.72 -0.24,-1.2 -0.72,-0.24 c 0,0 0.02712,-0.72 0,-1.2 -0.22224,-0.27 -2.59776,-1.77 -2.64,-2.16 -0.20712,-0.61032 -1.2,-0.48 -1.2,-0.48 l -0.72,-0.96 -1.2,0.48 -2.88,-1.44 -0.48,0.24 -0.72,0 -1.44,-0.24 -0.48,0.48 c 0,0 -0.71256,0.55968 -1.44,0.96 -0.52224,0.34968 0.60288,-0.7752 0.72,-1.44 0.13224,-0.58488 -0.48,0 -0.48,0 l -0.96,0.72 c 0,0 0.57288,-1.18032 0.48,-1.44 -0.15744,-0.49032 -0.72,-0.24 -0.72,-0.24 0,0 -1.06224,1.6248 -1.44,1.68 -0.37224,0.19512 0.12744,-1.18032 0.24,-1.44 -0.11256,-0.49032 -0.96,-0.48 -0.96,-0.48"
         style="fill:#f2f2f2;stroke:#000000;stroke-width:0.49999917;stroke-linecap:butt;stroke-linejoin:miter;stroke-miterlimit:4;stroke-opacity:1;stroke-dasharray:none"
         id="path13721"
         inkscape:connector-curvature="0" /><path
         d="m 138.54,12.06 c 0,0 -3.22776,-3.31032 -3.12,-4.08 -0.10776,-0.73032 1.89288,-0.97968 3.6,-1.2 1.79256,-0.28032 3.29256,0.72 4.08,0.96 0.71256,0.25968 1.68,0.72 1.68,0.72 0.0329,1.29 -0.24,2.4 -0.24,2.4 l -1.2,-0.72 -0.48,0.96 -2.16,-0.96 -0.72,0.96 -0.72,1.68 -0.72,-0.72"
         style="fill:#000000;fill-opacity:1;fill-rule:nonzero;stroke:none"
         id="path13723"
         inkscape:connector-curvature="0" /><path
         d="m 82.38,8.46 c 0,0 1.18224,0.04032 2.16,0.48 1.02288,0.55968 0.72,1.68 0.72,1.68 L 85.5,7.74 85.02,6.78 C 82.56288,4.75032 79.98,5.1 79.98,5.1 c 0,0 -4.66776,-1.09968 -6,0.24 -0.8184,0.810936 3.6,6.72 3.6,6.72 l 0.24,-2.16 1.2,0 0,-0.72 1.44,-0.24 1.2,-0.72 0.72,0.24"
         style="fill:#000000;fill-opacity:1;fill-rule:nonzero;stroke:none"
         id="path13725"
         inkscape:connector-curvature="0" /><path
         d="M 64.86,4.62 65.82,4.14 C 64.56288,2.50032 61.70712,1.9378128 60.3,1.98 58.91712,2.0625 54.06288,1.2496872 53.58,2.22 53.06256,3.25032 56.62512,4.562808 56.22,5.58 55.88712,6.777192 54.81288,4.00032 53.82,3.42 52.81224,3 52.62,3.66 52.62,3.66 c 0,0 0.94224,1.09032 1.92,2.64 0.85416,1.198128 2.16,2.64 2.16,2.64 l 0.72,-1.44 1.2,0.24 0,-1.44 1.68,-0.48 1.2,0.48 c 0,0 2.06256,-2.29968 3.36,-1.68"
         style="fill:#000000;fill-opacity:1;fill-rule:nonzero;stroke:none"
         id="path13727"
         inkscape:connector-curvature="0" /><path
         d="m 158.46,5.58 -1.92,0.48 -0.48,0.72 -0.72,0.48 -0.96,1.44 -1.2,-0.48 -0.48,0.96 c 0,0 -3.63744,-3.93 -3.6,-5.52 -0.0374,-1.41 1.44,0.24 1.44,0.24 l 1.68,1.68 -1.44,-2.88 c 0,0 2.71032,-0.3478128 4.08,-0.48 1.45224,-0.2203128 3.12,0.48 3.12,0.48 1.08288,1.30032 0.48,2.88 0.48,2.88 l 0,0"
         style="fill:#000000;fill-opacity:1;fill-rule:nonzero;stroke:none"
         id="path13729"
         inkscape:connector-curvature="0" /><path
         d="m 158.46,5.58 -1.92,0.48 -0.48,0.72 -0.72,0.48 -0.96,1.44 -1.2,-0.48 -0.48,0.96 c 0,0 -3.63744,-3.93 -3.6,-5.52 -0.0374,-1.41 1.44,0.24 1.44,0.24 l 1.68,1.68 -1.44,-2.88 c 0,0 2.71032,-0.3478128 4.08,-0.48 1.45224,-0.2203128 3.12,0.48 3.12,0.48 1.08288,1.30032 0.48,2.88 0.48,2.88 l 0,0"
         style="fill:none;stroke:#000000;stroke-width:0.49999917;stroke-linecap:butt;stroke-linejoin:miter;stroke-miterlimit:4;stroke-opacity:1;stroke-dasharray:none"
         id="path13731"
         inkscape:connector-curvature="0" /><path
         d="m 171.66,64.62 c 6.04584,12.61584 6.24288,31.14552 5.52,34.8 -1.8048,7.57968 -1.8048,8.58 -26.64,8.16 -2.6952,-0.13488 -4.99584,-0.4716 -6.96,-0.72 l 0,-1.2 c 0,0 -0.76776,-3.16032 0.24,-4.08 0.99288,-1.08 1.24224,-2.58 0.48,-2.88 -0.73776,-0.19968 -1.73712,-0.94968 -0.48,-2.4 1.24224,-1.54968 2.49288,-3.79968 0.48,-3.84 -1.98744,0.04032 -3.23712,0.28968 -2.64,0.96 0.40224,0.82968 0.40224,1.57968 -0.24,1.68 -0.85776,-0.10032 -0.60744,2.4 -1.44,0.96 -0.66744,-1.56 -0.91776,-2.05968 -1.68,-1.2 -0.73776,0.64032 -1.92,0.24 -1.92,0.24 0,0 -3.56712,-3.6 -2.16,-7.2 1.59288,-3.40032 2.59224,-2.89968 2.16,-6 -0.56712,-2.89968 0.93288,-2.14968 2.88,-3.36 2.05224,-1.29 3.55224,0.70968 5.28,0.96 1.77288,0.25032 3.02256,0.75 2.88,-1.68 -0.35712,-2.56968 -1.85712,-6.31968 0.24,-7.92 1.90224,-1.39968 5.15256,-2.65032 7.2,-1.92 1.95288,0.76968 1.86744,4.45584 4.8,0.72 2.40288,-3.19968 1.90224,-2.20032 3.84,-3.12 2.06256,-1.08 1.68,0.24 1.68,0.24 l 0.96,0.24 0.96,-1.92 2.4,0 2.16,0.48"
         style="fill:#000000;fill-opacity:1;fill-rule:nonzero;stroke:none"
         id="path13733"
         inkscape:connector-curvature="0" /><path
         d="m 58.14,54.06 c 0.5916,1.61352 1.42224,7.44 6,6.96 4.42224,-0.52032 8.42256,0.48 9.36,1.92 1.06224,1.56 3.43776,8.56032 3.12,9.6 -0.43224,0.96 -1.5432,4.72968 -0.48,9.36 0.38712,1.85352 2.4,3.12 2.4,3.12 0,0 5.38776,4.40616 6.24,6.72 0.9816,2.0148 4.86192,1.92744 5.52,1.68 1.01256,-0.16968 2.01288,0.58032 1.92,1.44 0.09288,0.64032 -2.15712,1.63968 -0.24,3.12 2.08224,1.51968 3.33288,3.52032 4.08,4.08 0.75288,0.43968 0.9768,1.99128 0.48,2.88 -0.35256,0.81 -0.32904,1.30968 -0.24,1.68 -3.65904,0.61128 -7.92,1.68 -7.92,1.68 0,0 -12.94224,2.8248 -24.48,2.4 -1.5648,0.003 -3.08064,0.0758 -4.56,0.24 0.97224,-1.93968 2.22288,-6.0648 1.2,-8.88 -1.90032,-5.58744 -3.97776,-9.55968 -4.08,-13.68 0.10224,-1.87968 0.93192,-3.41064 0.96,-4.8 -0.23256,-2.08032 -3.23256,-2.95488 -1.92,-4.56 1.43712,-1.6452 0.25032,-16.6452 -0.48,-18 -0.64488,-1.39488 -4.08,-1.2 -4.08,-1.2 -1.12776,-0.0074 -3.6,0.48 -3.6,0.48 1.0152,-2.94288 2.80512,-7.04616 5.52,-9.84 2.0148,0.47712 4.82712,2.60256 5.28,3.6"
         style="fill:#000000;fill-opacity:1;fill-rule:nonzero;stroke:none"
         id="path13735"
         inkscape:connector-curvature="0" /><path
         d="m 122.46,83.82 c -2.64744,2.17968 -7.14744,-5.07 -12.72,-6.48 -5.42712,-1.59 -10.92744,3.66 -12.48,6 -1.44744,2.16 1.05288,3.40968 -5.52,1.44 0,0 -4.92744,-2.28 -6,-3.84 -0.92712,-1.44 -3.17712,-1.93968 -0.48,-3.6 2.80224,-1.84032 2.05224,-2.34 2.16,-5.76 -0.10776,-3.58032 -2.10744,-6.82968 -2.16,-8.4 0.05256,-1.42968 2.80224,-13.68 6,-15.12 0.1848,-0.12096 0.32064,-0.21288 0.48,-0.24 5.22288,-0.20712 14.74128,-1.01352 18.48,-1.92 4.56936,-0.84288 4.3884,0.65712 10.08,1.44 0.47064,1.22352 0.9516,2.60616 1.2,4.08 1.31256,6.33 0.81288,9.07968 -0.48,11.76 -1.20744,2.82 0.79224,4.81968 2.16,6 1.13256,1.32 2.13288,12.31968 -0.72,14.64"
         style="fill:#000000;fill-opacity:1;fill-rule:nonzero;stroke:none"
         id="path13737"
         inkscape:connector-curvature="0" /><path
         d="m 33.846306,114.40739 c 0,0 1.78776,2.44968 2.4,3.12 0.38712,0.82968 1.13712,1.33032 2.16,1.92 0.97776,0.40968 0.85224,1.15968 2.88,0.96 1.97256,-0.3 2.4,-0.24 2.4,-0.24 l -2.64,-0.48 c 0,0 0.71256,0.16968 1.44,0 0.77256,-0.33 1.44,-1.92 1.44,-1.92 0,0 -0.79224,0.84 -1.44,1.2 -0.85224,0.13968 0.89712,-0.61032 0.96,-1.92 -0.06288,-1.18968 -0.24,-1.92 -0.24,-1.92 0,0 -0.07224,2.35512 -0.96,2.88 -1.11288,0.4752 -0.23712,-0.7752 -0.24,-1.2 0.0029,-0.3252 -0.37224,0.79968 -1.2,1.2 -0.67224,0.34968 1.07712,-2.14968 0.72,-2.88 -0.14256,-0.76968 -0.14256,0.97968 -1.2,1.68 -0.94224,0.79968 -0.19224,-0.5748 -0.24,-0.96 0.04776,-0.3648 -0.45288,0.25968 -0.72,0.72 -0.23256,0.28968 -1.2,0.48 -1.2,0.48 l 1.2,-1.92 -1.44,1.68 c 0,0 0.45744,-1.0752 0.72,-1.92 0.23712,-0.9048 -0.96,1.92 -0.96,1.92 l 0.24,-2.64 -0.72,1.92 0,-2.4 -0.72,1.44 0.72,-2.16 -1.44,1.92 0.96,-2.64 -1.44,2.16 0,-0.48 -0.48,0.24 -0.24,-0.72 -0.72,0.96"
         style="fill:#1a1a1a;fill-opacity:1;fill-rule:nonzero;stroke:none"
         id="path13739"
         inkscape:connector-curvature="0" /><path
         d="m 15.9,86.94 c 0,0 1.412808,1.06032 1.44,2.16 -0.02719,0.9 -0.24,2.16 -0.24,2.16"
         style="fill:none;stroke:#000000;stroke-width:0.49999917;stroke-linecap:butt;stroke-linejoin:miter;stroke-miterlimit:4;stroke-opacity:1;stroke-dasharray:none"
         id="path13741"
         inkscape:connector-curvature="0" /><path
         d="m 144.78,53.58 c 0,0 -1.46712,1.42032 -1.68,3.6 -0.28776,2.32032 -1.53744,3.07032 -2.88,4.08"
         style="fill:none;stroke:#000000;stroke-width:0.49999917;stroke-linecap:butt;stroke-linejoin:miter;stroke-miterlimit:4;stroke-opacity:1;stroke-dasharray:none"
         id="path13743"
         inkscape:connector-curvature="0" /><path
         d="m 73.5,43.02 c 0,0 1.81224,1.48032 2.88,2.88 0.93288,1.60032 -0.06744,1.93584 0,3.36 -0.06744,1.99032 0.93288,7.24032 1.2,7.92 0,0 3.48288,3.57 3.84,6.48"
         style="fill:none;stroke:#000000;stroke-width:0.49999917;stroke-linecap:butt;stroke-linejoin:miter;stroke-miterlimit:4;stroke-opacity:1;stroke-dasharray:none"
         id="path13745"
         inkscape:connector-curvature="0" /><path
         d="m 58.62,45.66 c 0,0 -0.61968,4.09032 -2.88,7.2"
         style="fill:none;stroke:#000000;stroke-width:0.49999917;stroke-linecap:butt;stroke-linejoin:miter;stroke-miterlimit:4;stroke-opacity:1;stroke-dasharray:none"
         id="path13747"
         inkscape:connector-curvature="0" /><path
         d="m 61.98,26.94 0,-2.88 1.68,-3.12"
         style="fill:none;stroke:#000000;stroke-width:0.49999917;stroke-linecap:butt;stroke-linejoin:miter;stroke-miterlimit:4;stroke-opacity:1;stroke-dasharray:none"
         id="path13749"
         inkscape:connector-curvature="0" /><path
         d="m 67.5,31.5 -0.48,-6 -1.44,-4.08"
         style="fill:none;stroke:#000000;stroke-width:0.49999917;stroke-linecap:butt;stroke-linejoin:miter;stroke-miterlimit:4;stroke-opacity:1;stroke-dasharray:none"
         id="path13751"
         inkscape:connector-curvature="0" /><path
         d="m 73.5,35.58 0,-6.24 2.64,-2.4"
         style="fill:none;stroke:#000000;stroke-width:0.49999917;stroke-linecap:butt;stroke-linejoin:miter;stroke-miterlimit:4;stroke-opacity:1;stroke-dasharray:none"
         id="path13753"
         inkscape:connector-curvature="0" /><path
         d="m 147.18,33.42 -1.68,-7.44 0.96,-1.92"
         style="fill:#e6e6e6;stroke:#000000;stroke-width:0.49999917;stroke-linecap:butt;stroke-linejoin:miter;stroke-miterlimit:4;stroke-opacity:1;stroke-dasharray:none"
         id="path13755"
         inkscape:connector-curvature="0" /><path
         d="M 151.5,32.94 149.58,27.9"
         style="fill:none;stroke:#000000;stroke-width:0.49999917;stroke-linecap:butt;stroke-linejoin:miter;stroke-miterlimit:4;stroke-opacity:1;stroke-dasharray:none"
         id="path13757"
         inkscape:connector-curvature="0" /><path
         d="m 158.46,42.06 1.2,-5.52 0,-3.6 -1.68,-2.88"
         style="fill:none;stroke:#000000;stroke-width:0.49999917;stroke-linecap:butt;stroke-linejoin:miter;stroke-miterlimit:4;stroke-opacity:1;stroke-dasharray:none"
         id="path13759"
         inkscape:connector-curvature="0" /><path
         d="m 21.66,114.54 1.68,-0.24 0.24,0.96 1.44,0.48 0.48,0.96 c 0,0 0.81288,0.79968 1.68,0.24 0.63288,-0.43968 1.68,0 1.68,0 l -0.24,0.72"
         style="fill:none;stroke:#878289;stroke-width:0.49999917;stroke-linecap:butt;stroke-linejoin:miter;stroke-miterlimit:4;stroke-opacity:1;stroke-dasharray:none"
         id="path13761"
         inkscape:connector-curvature="0" /><path
         d="m 48.54,84.06 c 0,0 0.27288,-1.81032 0.24,-5.28 0.03288,-3.52968 0.53256,-5.28 0.48,-7.92 0.05256,-2.86032 2.88,-8.16 2.88,-8.16"
         style="fill:none;stroke:#878289;stroke-width:0.49999917;stroke-linecap:butt;stroke-linejoin:miter;stroke-miterlimit:4;stroke-opacity:1;stroke-dasharray:none"
         id="path13765"
         inkscape:connector-curvature="0" /><path
         d="m 33.9,105.66 c 0,0 1.66224,-0.40968 1.44,-3.12 -0.27744,-2.79 0.24,-2.16 0.24,-2.16 0,0 0.23256,-0.13032 0.24,-1.44 -0.0074,-1.18968 2.74224,-3.43968 1.2,-5.76 C 35.56224,91.00032 35.06256,88.00032 33.66,87.42 32.06256,87 30.54,86.7 30.54,86.7 c 0,0 -2.04,-0.36648 -2.88,0.24"
         style="fill:none;stroke:#878289;stroke-width:0.49999917;stroke-linecap:butt;stroke-linejoin:miter;stroke-miterlimit:4;stroke-opacity:1;stroke-dasharray:none"
         id="path13773"
         inkscape:connector-curvature="0" /><path
         d="m 7.98,89.58 c 0.457512,-0.07968 1.457808,0.2952 1.44,1.2 C 9.187512,91.6248 9.187512,92.3748 8.7,91.5 8.187192,90.6252 7.687512,89.74968 7.02,89.34 6.437808,88.99968 5.687808,89.50032 5.34,89.1 4.937808,88.5 5.132808,88.7148 5.82,88.38 c 0.742512,-0.37968 3.12,0.72 3.12,0.72 0,0 -0.502488,0.15 -0.96,0 -0.292488,-0.10032 0,0.48 0,0.48"
         style="fill:#000000;fill-opacity:1;fill-rule:nonzero;stroke:none"
         id="path13783"
         inkscape:connector-curvature="0" /><path
         d="m 23.34,106.62 -0.24,0 0.24,-0.72 -0.96,0.72 0.48,-0.72 -0.96,0.24 0.24,-0.24 -0.24,0 -0.48,0.24 0.24,-0.48 -0.48,0.24 0.24,-0.48 c 0,0 -0.732192,0.70512 -1.2,0.48 0,0 0.628128,0.36744 0.96,0.72 0.09094,0.22872 0.980616,0.3852 1.68,0.48 l 0,0 c 0.08251,-0.007 0.126552,-0.006 0.24,0 0.05345,0.008 0.16968,0.0178 0.24,0 l 0,0 c 0.567192,0.0365 1.01904,0.0403 1.2,0 0,0 -3.352488,1.27512 -4.56,-1.2 -0.546552,-1.12032 -0.48,-1.68 -0.48,-1.68 -0.09374,0.006 -0.105,-0.0178 -0.24,0 -0.01126,0.21096 -0.17532,0.60288 -0.24,0.96 0.167808,0.25776 -0.08249,0.13224 0.24,0.96 0.427512,1.04712 0.72,1.2 0.72,1.2 0,0 -0.792192,-0.40224 -0.96,-1.2 -0.08249,-0.70224 -0.27,-1.82712 0,-2.16 0.22968,-0.41712 0.48,0 0.48,0 0.25032,0.0826 0.48,0 0.48,0 0.353448,-0.1884 0.669384,-0.47352 2.16,-0.24 0.487512,0.0142 1.323744,0.67872 1.44,1.2 0.164064,-0.3684 0.105936,-0.75192 0,-0.96 -0.735936,-0.89712 -2.112192,-0.7848 -2.64,-0.72 -0.831552,0.16128 -1.502808,0.32712 -1.44,0.24 0,0 0.180936,-0.21552 0.96,-0.24 -0.03468,-0.10032 2.39532,-0.43032 3.36,0.72 1.18032,1.33224 0.3048,2.14512 -0.48,2.64"
         style="fill:#000000;fill-opacity:1;fill-rule:nonzero;stroke:none"
         id="path13785"
         inkscape:connector-curvature="0" /><path
         d="m 20.22,104.7 c 0,0 0.217512,-0.88776 1.92,-0.72 0,0 -1.452192,-0.48 -1.92,0.48 l -0.24,0.24 -0.24,-0.48 0.48,0.96 0,-0.48"
         style="fill:#e3dbe3;fill-opacity:1;fill-rule:nonzero;stroke:none"
         id="path13787"
         inkscape:connector-curvature="0" /><path
         d="m 21.66,105.42 0.24,-0.24 0.24,0.24 -0.48,0"
         style="fill:#ffffff;fill-opacity:1;fill-rule:nonzero;stroke:none"
         id="path13789"
         inkscape:connector-curvature="0" /><path
         d="m 145.98,49.26 c 0,0 0.3948,1.74 -0.96,3.6 0,0 -1.65192,1.98 -5.28,2.4 -3.17712,0.3648 -7.6152,-2.44776 -8.64,-3.36 -0.97488,-0.71256 -8.88,-4.32 -8.88,-4.32 0.84744,-0.40872 1.74936,-0.86808 2.64,-1.2 0.30936,-0.5868 0.90288,-1.93032 0.72,-3.12 -0.26712,-1.51032 -0.51744,-2.38488 0,-2.64 0.48288,-0.49488 1.23288,-0.37032 1.44,0.72 0.29256,0.91032 0.0422,2.16 0.24,2.88 0.25128,0.6252 0.59616,0.89808 0.72,0.96 0,0 1.58256,0.07032 1.2,-1.2 -0.61776,-1.23 0,-3.12 0,-3.12 0,0 1.13256,-1.60968 1.2,-0.72 -0.0674,1.11 0.93288,2.86032 0.96,3.84 -0.0271,1.02 2.3952,1.97616 2.4,0.48 -0.0535,-0.22224 -0.0442,-0.66 -0.24,-1.44 -0.18744,-1.51968 -0.24,-2.4 -0.24,-2.4 0,0 0.55224,-1.62 1.2,-0.48 0.85224,1.36032 0.60288,1.60968 0.72,2.4 -0.11712,0.59808 0.60096,1.95 0.72,2.4 0.4932,0.02352 0.89904,0.11448 1.2,0.24 0.43968,-0.1032 0.71256,-0.33936 0.72,-0.96 -0.007,-1.47 0.72,-2.64 0.72,-2.64 0,0 1.02288,-0.82968 1.2,0.24 0.32256,0.93 0.0722,1.93032 0.24,2.64 0.33288,0.79032 1.2,1.68 1.2,1.68 0,0 3.61032,1.48416 4.8,3.12"
         style="fill:#f8c9cf;fill-opacity:1;fill-rule:nonzero;stroke:none"
         id="path13791"
         inkscape:connector-curvature="0" /><path
         d="m 145.98,49.26 c 0,0 0.3948,1.74 -0.96,3.6 0,0 -1.65192,1.98 -5.28,2.4 -3.17712,0.3648 -7.6152,-2.44776 -8.64,-3.36 -0.97488,-0.71256 -8.88,-4.32 -8.88,-4.32 0.84744,-0.40872 1.74936,-0.86808 2.64,-1.2 0.30936,-0.5868 0.90288,-1.93032 0.72,-3.12 -0.26712,-1.51032 -0.51744,-2.38488 0,-2.64 0.48288,-0.49488 1.23288,-0.37032 1.44,0.72 0.29256,0.91032 0.0422,2.16 0.24,2.88 0.25128,0.6252 0.59616,0.89808 0.72,0.96 0,0 1.58256,0.07032 1.2,-1.2 -0.61776,-1.23 0,-3.12 0,-3.12 0,0 1.13256,-1.60968 1.2,-0.72 -0.0674,1.11 0.93288,2.86032 0.96,3.84 -0.0271,1.02 2.3952,1.97616 2.4,0.48 -0.0535,-0.22224 -0.0442,-0.66 -0.24,-1.44 -0.18744,-1.51968 -0.24,-2.4 -0.24,-2.4 0,0 0.55224,-1.62 1.2,-0.48 0.85224,1.36032 0.60288,1.60968 0.72,2.4 -0.11712,0.59808 0.60096,1.95 0.72,2.4 0.4932,0.02352 0.89904,0.11448 1.2,0.24 0.43968,-0.1032 0.71256,-0.33936 0.72,-0.96 -0.007,-1.47 0.72,-2.64 0.72,-2.64 0,0 1.02288,-0.82968 1.2,0.24 0.32256,0.93 0.0722,1.93032 0.24,2.64 0.33288,0.79032 1.2,1.68 1.2,1.68 0,0 3.61032,1.48416 4.8,3.12 z"
         style="fill:none;stroke:#000000;stroke-width:0.49999917;stroke-linecap:butt;stroke-linejoin:miter;stroke-miterlimit:4;stroke-opacity:1;stroke-dasharray:none"
         id="path13793"
         inkscape:connector-curvature="0" /><path
         transform="matrix(0.8,0,0,-0.8,0,125)"
         inkscape:connector-curvature="0"
         id="path3087"
         d="m 35.79241,17.529062 c -0.403837,-1.002937 -0.794089,-1.974536 -0.867225,-2.159109 -0.09359,-0.236191 0.213484,-0.340235 1.036749,-0.351277 0.643348,-0.0086 2.075813,-0.352333 3.183255,-0.763788 l 2.013531,-0.7481 1.354038,-2.726805 c 1.395996,-2.8113012 2.796048,-4.5283486 4.869162,-5.9716225 0.61724,-0.4297142 1.331493,-0.7812987 1.587228,-0.7812987 0.255735,0 1.117753,-0.2057705 1.915594,-0.4572678 1.176564,-0.3708793 1.491575,-0.3910028 1.667396,-0.1065171 0.170602,0.2760393 0.342701,0.283358 0.807959,0.034359 0.740368,-0.3962332 2.401802,-0.1482406 4.080207,0.6090291 L 58.687523,4.6693909 57.92065,5.385758 c -0.659099,0.6156901 -0.75677,0.8902689 -0.694982,1.9537606 0.03954,0.6805665 0.155617,1.3211192 0.257949,1.4234507 0.411604,0.4116046 0.179193,1.4909837 -0.350885,1.6296027 -0.397885,0.104049 -0.536942,0.366198 -0.536942,1.012236 0,0.707704 -0.193616,1.006 -1.028512,1.584583 -0.565681,0.392018 -1.373561,1.072914 -1.795288,1.513102 -0.421727,0.440188 -0.947808,0.800342 -1.169069,0.800342 -0.221261,0 -0.670507,0.251975 -0.998325,0.559944 -0.486359,0.45691 -0.698507,0.505101 -1.152937,0.261897 -0.45659,-0.24436 -0.85439,-0.147877 -2.208407,0.535629 -2.395442,1.209215 -4.486135,1.221578 -6.331455,0.03744 -1.283551,-0.823653 -2.229666,-1.096578 -2.229666,-0.643191 0,0.118127 0.144974,0.359751 0.322164,0.536942 0.492773,0.492773 -0.07818,0.383219 -0.636613,-0.122151 -0.596254,-0.539602 -0.623574,-0.20711 -0.08826,1.074083 0.589704,1.41136 0.500137,1.490067 -0.422252,0.37105 -0.453726,-0.550449 -1.065938,-1.000817 -1.36047,-1.000817 -0.462678,0 -0.52392,0.151484 -0.450278,1.113785 0.133705,1.747172 -0.441949,1.51839 -1.254014,-0.498383 l 0,0 z m 10.197048,-1.890638 c -0.106379,-0.258404 -0.258823,-0.711448 -0.338763,-1.006766 -0.124949,-0.461591 -0.06299,-0.442753 0.441497,0.134235 0.534447,0.611252 0.583339,0.623237 0.547595,0.134236 -0.02159,-0.295318 -0.01552,-1.020189 0.01347,-1.610825 l 0.05272,-1.073883 0.368792,0.805412 0.368792,0.805413 0.02286,-1.073883 0.02286,-1.073884 0.400532,0.738295 c 0.511841,0.943471 0.762429,0.94694 0.526592,0.0073 -0.181977,-0.725054 -0.178935,-0.726901 0.373602,-0.226861 0.710643,0.643123 0.709968,0.328986 -0.0018,-0.822624 -0.651502,-1.054165 -0.241374,-1.211098 0.609036,-0.23304 0.754448,0.867691 0.982971,0.84873 0.808952,-0.06712 -0.130547,-0.687055 -0.106444,-0.710345 0.347287,-0.335588 0.268164,0.221488 0.676217,0.825547 0.906786,1.342354 l 0.419216,0.939647 0.09617,-0.761085 c 0.05289,-0.418596 -0.09308,-1.234076 -0.324394,-1.812177 -0.476776,-1.1915815 -0.349946,-1.3252104 0.42429,-0.447034 l 0.532563,0.604059 -0.151544,-0.8941034 c -0.108849,-0.6422114 -0.05768,-0.863532 0.181648,-0.7855879 0.451695,0.1471104 0.986545,1.2999773 1.24535,2.6843513 0.207289,1.108804 0.219958,1.120472 0.422181,0.388835 0.114663,-0.41485 0.149129,-1.280821 0.07659,-1.92438 -0.103246,-0.9159955 -0.05213,-1.1395028 0.235356,-1.0291825 0.581948,0.2233143 0.432062,-0.283423 -0.439852,-1.4870656 l -0.807096,-1.114164 0.726555,0 c 0.489073,0 0.637942,-0.088613 0.455452,-0.2711028 -0.149106,-0.1491066 -1.290778,-0.3001214 -2.537049,-0.3355885 -2.257105,-0.064234 -2.272899,-0.05999 -4.048172,1.0877231 -1.342543,0.8679537 -2.253246,1.7706948 -3.691473,3.6592013 -1.050086,1.378846 -1.909248,2.615445 -1.909248,2.747999 0,0.132553 0.19838,0.524233 0.440844,0.870399 0.387064,0.552611 0.47057,0.576274 0.684518,0.193972 0.390852,-0.698416 0.849059,-0.510807 1.559346,0.638462 0.665272,1.076433 1.300916,1.485817 0.937912,0.60406 z"
         style="fill:#1a1a1a;fill-opacity:1;fill-rule:nonzero" /><path
         transform="matrix(0.8,0,0,-0.8,0,125)"
         inkscape:connector-curvature="0"
         id="path3089"
         d="M 40.531495,8.0049922 C 39.403907,7.7530643 39.382017,7.7286616 39.83481,7.2283309 c 0.257115,-0.2841087 0.601986,-0.5165612 0.766382,-0.5165612 0.164395,0 0.900744,-0.4975647 1.636332,-1.1056996 1.476933,-1.2210291 1.898846,-1.421996 3.5062,-1.6700847 l 1.094884,-0.1689909 -2.247247,2.2777999 c -1.235986,1.2527901 -2.393149,2.2648622 -2.571474,2.249049 -0.178324,-0.015813 -0.8481,-0.1457963 -1.488392,-0.2888512 z"
         style="fill:#1a1a1a;fill-opacity:1;fill-rule:nonzero" /><path
         transform="matrix(0.8,0,0,-0.8,0,125)"
         inkscape:connector-curvature="0"
         id="path3093"
         d="m 35.973059,17.375829 c -0.399927,-0.85325 -0.72714,-1.655804 -0.72714,-1.783455 0,-0.295329 0.680002,-0.558922 1.43143,-0.554874 0.320156,0.0017 1.501538,-0.315348 2.625294,-0.704605 l 2.043193,-0.707741 1.044221,-2.167542 c 1.500707,-3.1150906 3.789593,-5.8702038 5.722922,-6.8886319 2.020801,-1.0645064 6.986182,-1.2912467 9.094537,-0.415295 1.153681,0.4793164 1.154474,0.4806141 0.641117,1.0491734 -0.725281,0.803272 -0.874188,1.6688471 -0.548417,3.187865 0.254677,1.1875193 0.227059,1.3756849 -0.281353,1.9168645 -0.310063,0.330047 -0.563751,0.846008 -0.563751,1.14658 0,0.332361 -0.604871,1.066791 -1.543707,1.874358 -2.035403,1.750811 -3.481416,2.578472 -4.631121,2.650737 -0.516807,0.03248 -1.837723,0.388716 -2.935369,0.791628 -2.295214,0.842501 -3.310608,0.792364 -5.400488,-0.266658 -1.350655,-0.684429 -2.402975,-0.86153 -2.402975,-0.404412 0,0.143025 -0.180746,0.190686 -0.401659,0.105915 -0.326479,-0.125283 -0.369058,0.01448 -0.227483,0.74672 0.170353,0.88108 0.162501,0.89054 -0.357775,0.431028 -0.292573,-0.258403 -0.786973,-0.469824 -1.098665,-0.469824 -0.459092,0 -0.584655,0.191189 -0.661193,1.006765 l -0.09448,1.006766 -0.727139,-1.551362 z m 10.146464,-1.802834 c -0.130412,-0.410891 -0.07224,-0.497783 0.250379,-0.373983 0.341197,0.13093 0.420261,-0.05582 0.420261,-0.99265 0,-1.072249 0.0279,-1.117035 0.394168,-0.632782 0.371207,0.49078 0.395141,0.466401 0.41087,-0.418511 0.01369,-0.770392 0.06599,-0.85502 0.29035,-0.469824 0.333107,0.571911 0.783908,0.615354 0.783908,0.07554 0,-0.25835 0.154904,-0.334838 0.449315,-0.221861 0.358866,0.137709 0.407726,0.06846 0.242715,-0.344015 -0.535043,-1.337436 -0.534985,-1.339692 0.02188,-0.852021 0.698981,0.612127 0.84191,0.592819 0.945359,-0.127704 0.0716,-0.49873 0.195014,-0.390912 0.746378,0.652085 0.363323,0.687287 0.769472,1.182318 0.902554,1.100069 0.133081,-0.08225 0.161168,-0.758626 0.06242,-1.503061 -0.159931,-1.205619 -0.133877,-1.315611 0.238447,-1.00661 0.360674,0.299334 0.417997,0.248183 0.417997,-0.372987 0,-1.0549918 0.411958,-0.623396 0.809975,0.848586 0.190678,0.705183 0.40357,1.385659 0.473092,1.512168 0.263775,0.479986 0.588168,-0.553037 0.592117,-1.885586 0.0026,-0.864542 0.129971,-1.4290523 0.3382,-1.498462 C 55.141021,8.984349 55.016895,8.6068489 54.507202,7.836651 53.654997,6.5488828 53.62968,6.4432959 54.173113,6.4432959 c 0.221489,0 0.402706,-0.1043905 0.402706,-0.2319791 0,-0.2566275 -1.951686,-0.5767149 -3.460473,-0.5675371 -2.213459,0.013464 -5.293823,2.3790542 -7.718199,5.9272503 -1.222436,1.789099 -1.239412,1.84232 -0.801048,2.511347 0.501614,0.765562 0.717939,0.830604 1.190572,0.357971 0.255076,-0.255076 0.50338,-0.109795 1.147123,0.671177 0.897259,1.08853 1.453456,1.304993 1.185732,0.461467 l 0,0 z"
         style="fill:#f2f2f2;fill-opacity:1;fill-rule:nonzero" /><path
         transform="matrix(0.8,0,0,-0.8,0,125)"
         inkscape:connector-curvature="0"
         id="path3095"
         d="M 40.413982,7.864655 C 40.081749,7.8006642 39.81243,7.6661018 39.815495,7.5656274 c 0.01563,-0.5125094 5.187118,-3.5428969 6.024789,-3.5304073 0.418273,0.00624 0.05829,0.4805731 -1.528121,2.013531 -2.073717,2.0038487 -2.321973,2.1194947 -3.898181,1.8159039 z"
         style="fill:#f9f9f9;fill-opacity:1;fill-rule:nonzero" /><path
         transform="matrix(0.8,0,0,-0.8,0,125)"
         inkscape:connector-curvature="0"
         id="path3099"
         d="m 35.94555,16.906486 c -0.565845,-1.414186 -0.546101,-1.599689 0.172899,-1.624474 0.332233,-0.01145 1.627296,-0.346259 2.877918,-0.744015 l 2.273858,-0.723192 1.484733,-2.676748 c 1.941201,-3.4996907 4.62001,-6.2871619 6.586295,-6.8534596 1.744229,-0.5023445 6.414633,-0.5168857 7.583683,-0.023612 1.015593,0.428524 0.994659,0.3619815 0.447032,1.4209759 -0.316251,0.6115613 -0.381321,1.2112802 -0.253433,2.3357873 0.154618,1.3595447 0.0874,1.6684292 -0.662827,3.0461054 -1.058985,1.94465 -3.748667,4.062006 -5.906954,4.650039 -0.812124,0.221266 -2.270437,0.642137 -3.240696,0.93527 -2.281308,0.689222 -2.820264,0.672698 -5.008651,-0.153568 -2.083795,-0.786775 -3.563367,-0.726618 -3.563367,0.14488 0,0.430519 -0.143158,0.484666 -0.939648,0.355414 -0.740019,-0.120089 -0.939648,-0.06283 -0.939648,0.269505 0,0.874359 -0.495892,0.679034 -0.911194,-0.358908 z m 10.307672,-1.200945 c 0,-0.221488 0.10571,-0.402706 0.234912,-0.402706 0.129201,0 0.309,-0.370442 0.399553,-0.823206 0.09149,-0.45745 0.285325,-0.748618 0.436265,-0.655332 0.149393,0.09233 0.271624,-0.02047 0.271624,-0.250678 0,-0.230202 0.21142,-0.422393 0.469824,-0.427088 0.683713,-0.01243 1.499925,-0.710859 1.334505,-1.141937 -0.26055,-0.678982 1.330294,-0.453426 1.702117,0.241333 0.587637,1.098009 1.057557,1.012542 1.057557,-0.192344 0,-0.915538 0.447721,-1.851693 0.885581,-1.851693 0.06519,0 0.270734,0.543653 0.456773,1.208119 0.328741,1.174145 0.727433,1.554713 0.914084,0.87253 0.0505,-0.184574 0.233946,-1.096869 0.407654,-2.027322 0.288942,-1.5476883 0.26957,-1.7665878 -0.227505,-2.5708724 -0.411471,-0.6657753 -0.467929,-0.9545492 -0.232624,-1.1898537 0.521777,-0.5217769 -0.0058,-0.7161002 -2.216858,-0.8165088 -1.749069,-0.079429 -2.325602,0.00434 -3.310136,0.480942 -1.503973,0.7280607 -4.278147,3.4269481 -5.64247,5.4893429 -0.882043,1.333351 -1.006814,1.690333 -0.797592,2.282001 0.183938,0.520167 0.43822,0.704427 0.984149,0.713145 0.430505,0.0069 1.03777,0.313398 1.462667,0.738295 0.803579,0.803579 1.40992,0.942845 1.40992,0.323833 z"
         style="fill:#f9f9f9;fill-opacity:1;fill-rule:nonzero" /><path
         transform="matrix(0.8,0,0,-0.8,0,125)"
         inkscape:connector-curvature="0"
         id="path3101"
         d="m 36.105031,17.058539 c -0.549109,-1.205163 -0.411129,-1.671217 0.55036,-1.858945 0.479892,-0.0937 1.718213,-0.422127 2.751826,-0.729845 l 1.879295,-0.559486 1.47659,-2.556883 c 1.709486,-2.9601715 4.153482,-5.7611677 5.740278,-6.5787767 0.860522,-0.4433908 1.730852,-0.5940969 3.92467,-0.6795954 1.550419,-0.060424 3.302191,-0.00233 3.892826,0.1290975 0.927623,0.206413 1.06355,0.3281043 0.998008,0.8934876 -0.04173,0.3599909 -0.162543,1.6210238 -0.26847,2.8022953 -0.381395,4.2531967 -2.733101,6.5750887 -8.353523,8.2476167 -3.179202,0.946069 -4.2353,0.978287 -6.643511,0.202671 -1.987031,-0.639967 -3.31734,-0.581461 -3.31734,0.145892 0,0.266721 -0.27746,0.397592 -0.842933,0.397592 -0.463614,0 -0.983102,0.191692 -1.15442,0.425983 -0.272658,0.372882 -0.351646,0.337842 -0.633656,-0.281104 z m 10.556836,-1.940374 c 0.567999,-1.196969 1.096702,-1.75019 2.07471,-2.170919 0.406062,-0.174684 0.738294,-0.501415 0.738294,-0.726069 0,-0.658362 0.994333,-0.470819 1.734196,0.327089 0.375123,0.404553 0.691764,0.67638 0.703647,0.604059 0.165811,-1.009124 0.715101,-2.529119 0.940429,-2.602355 0.159971,-0.05199 0.438949,0.399756 0.619952,1.003887 0.187853,0.627 0.466301,1.053546 0.64879,0.993861 0.175833,-0.05751 0.482796,-0.932453 0.682141,-1.944323 0.321956,-1.6342418 0.313439,-1.9425324 -0.07624,-2.7597062 -0.241279,-0.5059679 -0.370789,-1.1338781 -0.287799,-1.3953558 0.191965,-0.6048283 -0.491856,-0.8018829 -2.7997,-0.8067806 -1.197482,-0.00254 -2.075378,0.16478 -2.861664,0.5454147 -1.452829,0.7033021 -4.240293,3.4292517 -5.584541,5.4612999 -0.879483,1.329481 -1.006664,1.69205 -0.800471,2.282001 0.162816,0.465842 0.472641,0.728106 0.922565,0.780943 0.372582,0.04375 1.034824,0.371642 1.471648,0.72864 1.073581,0.877392 1.325573,0.834137 1.874047,-0.321686 l 0,0 z"
         style="fill:#f9f9f9;fill-opacity:1;fill-rule:nonzero" /><path
         transform="matrix(0.8,0,0,-0.8,0,125)"
         inkscape:connector-curvature="0"
         id="path3103"
         d="m 36.105031,17.058539 c -0.635592,-1.394971 -0.468901,-1.615074 1.624243,-2.144688 3.338444,-0.844703 3.415568,-0.900231 5.033828,-3.624285 1.744137,-2.9359481 4.194971,-5.7181555 5.740278,-6.516412 0.871815,-0.4503519 1.73046,-0.5956578 4.058905,-0.6868764 3.658564,-0.143327 4.859846,0.1178795 4.766417,1.0364088 -0.03633,0.3571895 -0.158075,1.6159304 -0.270541,2.7972019 -0.415967,4.3690747 -2.766809,6.6423887 -8.606138,8.3223167 -3.026402,0.870671 -4.076086,0.894584 -6.330929,0.14422 -1.875636,-0.624171 -3.385054,-0.559131 -3.385054,0.14586 0,0.248542 -0.293595,0.381375 -0.842933,0.381375 -0.463614,0 -0.983102,0.191692 -1.15442,0.425983 -0.272658,0.372882 -0.351646,0.337842 -0.633656,-0.281104 z m 10.556836,-1.940374 c 0.551047,-1.161245 1.060728,-1.706138 2.07471,-2.218044 0.406062,-0.204999 0.738294,-0.533529 0.738294,-0.730066 0,-0.544888 1.020537,-0.425782 1.538882,0.179601 0.689106,0.804816 1.015615,0.657183 1.295617,-0.585823 0.139103,-0.61752 0.373727,-1.159829 0.521386,-1.205129 0.147659,-0.0453 0.485984,0.429741 0.751834,1.055647 0.579874,1.365234 0.801014,1.128051 1.248362,-1.338924 C 55.087358,8.8614347 55.068302,8.4784316 54.706755,7.7792783 54.471864,7.325048 54.349698,6.7327955 54.435277,6.463162 54.631704,5.8442746 53.968747,5.6465245 51.68083,5.6415524 c -1.254137,-0.00273 -2.013364,0.161783 -2.95962,0.6412868 -1.562781,0.791921 -5.21566,4.5555758 -6.011644,6.1939498 -0.566148,1.165303 -0.568571,1.213072 -0.08844,1.743616 0.271513,0.300019 0.686357,0.546088 0.921875,0.546822 0.235518,7.25e-4 0.79065,0.298418 1.233626,0.661522 1.084882,0.889266 1.335458,0.847985 1.885235,-0.310584 z"
         style="fill:#f9f9f9;fill-opacity:1;fill-rule:nonzero" /></g><path
       id="path4098"
       sodipodi:nodetypes="cccccc"
       style="fill:#44aa00"
       inkscape:connector-curvature="0"
       d="m -7.8078503,20.867631 c 9.9895999,-1.22744 14.2176,-10.7408 14.24,-21.23919967 H 9.1139096 C 10.366869,4.3416313 13.26735,9.5540313 21.36911,9.9796313 15.29487,10.797471 12.08751,9.3029913 8.2283096,2.6316313 4.9707097,17.891631 -1.6540903,20.685231 -7.8084903,20.867631 z"
       inkscape:export-filename="/Users/Elodie/Documents/Cinéma/Animation/vache-broute.png"
       inkscape:export-xdpi="800.70624"
       inkscape:export-ydpi="800.70624" /></g></svg>